<?xml version="1.0"?>
<svg width="512" height="512" xmlns="http://www.w3.org/2000/svg" xmlns:svg="http://www.w3.org/2000/svg">
 <defs>
  <linearGradient id="hexGradient" x1="0%" x2="100%" y1="0%" y2="100%">
   <stop offset="0%" stop-color="#4A4A4A"/>
   <stop offset="100%" stop-color="#2d2d2d"/>
  </linearGradient>
 </defs>
 <g class="layer">
  <title>Layer 1</title>
  <polygon fill="url(#hexGradient)" id="svg_1" points="256,64 440,170 440,382 256,488 72,382 72,170" stroke="#FFC107" stroke-linejoin="round" stroke-width="12"/>
  <text dominant-baseline="middle" fill="#FFC107" font-family="Arial" font-size="90" font-weight="bold" id="svg_2" text-anchor="middle" transform="matrix(1 0 0 1 0 0)" x="252" y="242.24">CRD</text>
  <circle cx="0" cy="0" fill="#4A4A4A" id="svg_4" r="55" stroke="#FFC107" stroke-width="6" transform="matrix(1.02555 -0.615212 0.592103 1.06558 257.024 361.283)"/>
  <circle cx="1.06" cy="1.55" fill="rgba(255, 255, 255, 0.15)" id="svg_5" r="42" transform="matrix(1 0 0 1 0 0) matrix(1.02555 -0.615212 0.592103 1.06558 257.024 361.283)"/>
  <circle cx="-12" cy="-10" fill="rgba(255, 255, 255, 0.4)" id="svg_6" r="10" transform="matrix(1.02555 -0.615212 0.592103 1.06558 257.024 361.283)"/>
  <rect fill="#FFC107" height="45" id="svg_7" rx="4" stroke="#4A4A4A" stroke-width="4" transform="matrix(1 0 0 1 0 0) matrix(0.351594 -1.75738 1.70822 0.404906 -251.698 522.388)" width="16" x="145.8" y="296.84"/>
 </g>
</svg>